<svg version="1.1" id="Layer_1" xmlns="http://www.w3.org/2000/svg" xmlns:xlink="http://www.w3.org/1999/xlink" x="0px" y="0px"
	 width="100%" viewBox="0 0 200 200" enable-background="new 0 0 200 200" xml:space="preserve">
<path fill="#0166FE" opacity="1.000000" stroke="none" 
	d="
M1.000000,43.000000 
	C1.000000,29.021595 1.000000,15.043192 1.000010,1.063876 
	C67.666695,1.062964 134.333359,1.062964 201.000000,1.062964 
	C201.000000,14.771512 201.000000,28.417097 200.531342,42.531555 
	C198.071320,43.000534 196.075363,42.912300 194.089325,43.015270 
	C182.219299,43.630695 170.353470,44.331169 158.480743,44.885548 
	C156.910385,44.958874 154.313873,44.860764 153.881882,43.997108 
	C150.904510,38.044483 146.298996,38.007999 140.636963,39.714939 
	C139.741043,39.333977 139.085602,39.095631 138.623627,38.654613 
	C129.528976,29.972603 129.157562,29.911316 118.535561,35.639015 
	C117.369576,36.267750 116.259087,37.204739 115.018112,37.435501 
	C113.565910,37.705544 111.449600,37.970680 110.569092,37.181095 
	C103.874298,31.177629 96.874054,30.286148 88.930115,35.185387 
	C88.098122,35.511276 87.569542,35.804386 87.063889,36.109444 
	C87.086815,36.121391 87.045105,36.157158 86.665771,36.132362 
	C84.647018,36.715103 83.020950,37.362091 81.365570,37.922436 
	C77.169228,39.342911 73.941208,45.388191 68.372726,40.609001 
	C67.916855,40.217747 66.558922,40.832336 65.634048,41.041195 
	C62.813332,41.678150 60.004322,42.887424 57.182076,42.912930 
	C38.455986,43.082150 19.727623,43.000217 1.000000,43.000000 
z"/>
<path fill="#018EFF" opacity="1.000000" stroke="none" 
	d="
M201.000000,167.000000 
	C201.000000,178.314880 201.000000,189.629761 201.000000,200.942780 
	C134.333313,200.940918 67.666634,200.940918 1.000000,200.940918 
	C1.000000,189.567001 1.000000,178.252151 1.448377,166.468689 
	C68.253731,168.478760 134.641373,164.851379 201.000000,167.000000 
z"/>
<path fill="#026EFE" opacity="1.000000" stroke="none" 
	d="
M1.000000,43.468658 
	C19.727623,43.000217 38.455986,43.082150 57.182076,42.912930 
	C60.004322,42.887424 62.813332,41.678150 65.634048,41.041195 
	C66.558922,40.832336 67.916855,40.217747 68.372726,40.609001 
	C73.941208,45.388191 77.169228,39.342911 81.365570,37.922436 
	C83.020950,37.362091 84.647018,36.715103 86.466507,36.402283 
	C84.215973,38.244762 85.437439,39.346527 87.283546,39.591999 
	C88.838539,39.798756 90.600937,39.381523 92.110306,38.812702 
	C95.983513,37.353043 99.006996,38.325901 102.091530,40.988808 
	C105.443481,43.882576 109.293831,48.278206 112.883385,48.236938 
	C116.524124,48.195080 120.381287,43.826069 123.645012,40.812229 
	C126.759193,37.936474 129.459641,38.057587 132.924835,39.896187 
	C137.322449,42.229523 141.949615,44.130219 146.477798,46.217472 
	C146.761902,45.805744 147.046005,45.394012 147.330124,44.982285 
	C145.209244,43.242588 143.088379,41.502888 140.967514,39.763191 
	C146.298996,38.007999 150.904510,38.044483 153.881882,43.997108 
	C154.313873,44.860764 156.910385,44.958874 158.480743,44.885548 
	C170.353470,44.331169 182.219299,43.630695 194.089325,43.015270 
	C196.075363,42.912300 198.071320,43.000534 200.531342,43.000214 
	C201.000000,52.020893 201.000000,61.041790 200.552429,70.531418 
	C186.291107,70.416565 172.725311,68.964401 158.602417,70.302856 
	C138.519577,72.206139 118.041473,69.894051 97.730537,69.463669 
	C92.106560,69.344498 86.396767,68.949326 80.875671,69.732918 
	C76.794044,70.312210 72.954597,72.597885 68.955200,74.113647 
	C68.903137,74.103958 68.902328,73.999817 68.993935,73.654114 
	C70.353249,70.398201 69.100632,69.172028 66.247726,68.549278 
	C61.323677,67.474411 62.423508,71.902847 60.899807,74.150696 
	C60.804905,74.280273 60.484245,74.261131 60.088337,74.204247 
	C54.344574,74.358513 57.986160,69.356857 55.440048,67.116730 
	C52.229126,69.658264 48.619644,71.920273 44.259602,69.079514 
	C41.086575,67.012154 37.769600,68.417816 34.369240,68.561829 
	C28.843325,68.795860 29.977488,72.811760 28.719048,75.596672 
	C28.615982,75.824753 28.191242,75.907463 27.211267,76.442375 
	C26.232061,71.155617 23.627642,68.809464 18.678068,72.595016 
	C18.394844,72.811630 17.724424,72.512329 17.232882,72.467728 
	C11.822073,71.976814 6.411000,71.488808 1.000000,71.000000 
	C1.000000,61.979103 1.000000,52.958210 1.000000,43.468658 
M67.187363,46.109848 
	C66.594803,45.556679 66.002251,45.003510 65.409706,44.450340 
	C65.203690,44.830826 64.997673,45.211315 64.791656,45.591801 
	C65.464867,45.889927 66.138069,46.188053 67.187363,46.109848 
z"/>
<path fill="#0088FF" opacity="1.000000" stroke="none" 
	d="
M201.000000,166.531342 
	C134.641373,164.851379 68.253731,168.478760 1.448377,166.000031 
	C1.000000,157.979095 1.000000,149.958191 1.468657,141.468643 
	C68.291542,141.000000 134.645767,141.000000 201.000000,141.000000 
	C201.000000,149.354233 201.000000,157.708466 201.000000,166.531342 
z"/>
<path fill="#0178FE" opacity="1.000000" stroke="none" 
	d="
M201.000000,86.000000 
	C201.000000,93.020950 201.000000,100.041893 200.531342,107.531311 
	C133.708450,107.999855 67.354225,107.999931 1.000000,108.000000 
	C1.000000,100.979050 1.000000,93.958107 1.468657,86.468468 
	C10.870540,86.000473 19.804565,85.939468 28.736298,86.055313 
	C30.467089,86.077766 32.428417,86.391747 33.870777,87.258171 
	C38.520180,90.051064 46.738274,89.076752 51.390541,84.950409 
	C52.136486,85.060181 52.561340,85.132828 53.057343,85.522919 
	C53.420414,87.422356 53.712341,89.004349 54.228031,91.798973 
	C56.524353,89.245049 58.183079,87.400253 59.930954,85.456291 
	C64.017151,92.046906 65.551590,92.210785 71.073891,87.079712 
	C71.923355,86.290428 72.749657,85.089256 73.727226,84.927391 
	C74.831024,84.744629 76.093590,85.520737 77.287109,85.879837 
	C76.702675,86.851120 76.295258,88.023651 75.484077,88.737129 
	C74.671967,89.451424 73.456505,89.707130 72.417839,90.163857 
	C72.668892,90.853317 72.919952,91.542786 73.171005,92.232246 
	C75.858162,91.259033 79.036011,90.885872 81.123230,89.179031 
	C84.703987,86.250824 88.546852,86.015594 92.774818,85.952187 
	C105.231934,85.765366 117.685036,85.190460 130.141327,85.136093 
	C134.240143,85.118210 138.343872,86.225906 142.445358,86.818909 
	C142.578384,87.433670 142.711426,88.048431 142.844452,88.663193 
	C140.358932,90.326469 137.873413,91.989754 135.387878,93.653038 
	C135.879150,94.403793 136.370407,95.154549 136.861664,95.905296 
	C140.293640,95.178993 143.725601,94.452690 147.171600,93.742592 
	C147.185623,93.758797 147.180069,93.800621 147.217957,94.086983 
	C148.144058,94.706795 149.032303,95.040245 150.200912,95.328247 
	C150.670593,95.278091 150.859894,95.273376 151.181335,95.296768 
	C151.600952,95.287300 151.798340,95.127335 151.926636,94.883270 
	C151.947647,94.921547 151.870209,94.961914 152.066254,94.823051 
	C152.517456,94.487946 152.740921,94.260551 152.936493,93.964706 
	C152.940292,93.927414 153.015091,93.932594 153.390198,93.942520 
	C156.004730,93.685966 158.244156,93.419487 160.793381,93.116135 
	C160.086288,90.007851 159.367157,87.668091 155.435181,89.393219 
	C154.870255,89.308861 154.554962,89.200691 153.930328,89.146332 
	C153.090408,89.520805 152.559799,89.841469 152.084137,90.151306 
	C152.139053,90.140472 152.165604,90.249237 151.784729,90.189774 
	C146.798553,89.227371 146.876541,85.340469 144.784882,81.225060 
	C147.715195,83.302414 149.275421,85.291443 151.036819,85.489288 
	C156.039474,86.051208 161.123947,85.961800 166.176849,85.983994 
	C177.784363,86.034973 189.392258,86.000053 201.000000,86.000000 
z"/>
<path fill="#0082FF" opacity="1.000000" stroke="none" 
	d="
M201.000000,140.531723 
	C134.645767,141.000000 68.291542,141.000000 1.468657,141.000000 
	C1.000000,134.978851 1.000000,128.957687 1.468657,122.468269 
	C68.291542,122.000000 134.645767,122.000000 201.000000,122.000000 
	C201.000000,128.021149 201.000000,134.042297 201.000000,140.531723 
z"/>
<path fill="#007DFE" opacity="1.000000" stroke="none" 
	d="
M201.000000,121.535355 
	C134.645767,122.000000 68.291542,122.000000 1.468657,122.000000 
	C1.000000,117.643097 1.000000,113.286201 1.000000,108.464645 
	C67.354225,107.999931 133.708450,107.999855 200.531342,107.999893 
	C201.000000,112.356903 201.000000,116.713799 201.000000,121.535355 
z"/>
<path fill="#0373FC" opacity="1.000000" stroke="none" 
	d="
M201.000000,85.533882 
	C189.392258,86.000053 177.784363,86.034973 166.176849,85.983994 
	C161.123947,85.961800 156.039474,86.051208 151.036819,85.489288 
	C149.275421,85.291443 147.715195,83.302414 144.784882,81.225060 
	C146.876541,85.340469 146.798553,89.227371 151.574478,90.457260 
	C149.605820,91.019577 147.466553,91.254944 143.753860,91.663422 
	C145.512650,92.729401 146.335114,93.227890 147.157593,93.726379 
	C143.725601,94.452690 140.293640,95.178993 136.861664,95.905296 
	C136.370407,95.154549 135.879150,94.403793 135.387878,93.653038 
	C137.873413,91.989754 140.358932,90.326469 142.844452,88.663193 
	C142.711426,88.048431 142.578384,87.433670 142.445358,86.818909 
	C138.343872,86.225906 134.240143,85.118210 130.141327,85.136093 
	C117.685036,85.190460 105.231934,85.765366 92.774818,85.952187 
	C88.546852,86.015594 84.703987,86.250824 81.123230,89.179031 
	C79.036011,90.885872 75.858162,91.259033 73.171005,92.232246 
	C72.919952,91.542786 72.668892,90.853317 72.417839,90.163857 
	C73.456505,89.707130 74.671967,89.451424 75.484077,88.737129 
	C76.295258,88.023651 76.702675,86.851120 77.287109,85.879837 
	C76.093590,85.520737 74.831024,84.744629 73.727226,84.927391 
	C72.749657,85.089256 71.923355,86.290428 71.073891,87.079712 
	C65.551590,92.210785 64.017151,92.046906 59.930954,85.456291 
	C58.183079,87.400253 56.524353,89.245049 54.228031,91.798973 
	C53.712341,89.004349 53.420414,87.422356 53.364243,85.325302 
	C60.314610,81.216904 66.943558,77.072128 75.172928,81.282127 
	C73.117706,78.895866 71.062477,76.509598 69.007256,74.123337 
	C72.954597,72.597885 76.794044,70.312210 80.875671,69.732918 
	C86.396767,68.949326 92.106560,69.344498 97.730537,69.463669 
	C118.041473,69.894051 138.519577,72.206139 158.602417,70.302856 
	C172.725311,68.964401 186.291107,70.416565 200.552429,71.000076 
	C201.000000,75.689255 201.000000,80.378510 201.000000,85.533882 
M65.575508,86.230377 
	C65.742302,85.203346 65.909103,84.176315 66.075905,83.149277 
	C65.476913,83.190628 64.877922,83.231972 64.278938,83.273315 
	C64.539734,84.192276 64.800522,85.111244 65.575508,86.230377 
M77.860359,75.792488 
	C78.116753,76.050117 78.373138,76.307755 78.629524,76.565392 
	C78.803024,76.367294 78.976524,76.169197 79.150024,75.971092 
	C78.811066,75.814697 78.472099,75.658295 77.860359,75.792488 
z"/>
<path fill="#0373FC" opacity="1.000000" stroke="none" 
	d="
M51.069447,84.913292 
	C46.738274,89.076752 38.520180,90.051064 33.870777,87.258171 
	C32.428417,86.391747 30.467089,86.077766 28.736298,86.055313 
	C19.804565,85.939468 10.870540,86.000473 1.468657,85.999893 
	C1.000000,81.310745 1.000000,76.621490 1.000000,71.466118 
	C6.411000,71.488808 11.822073,71.976814 17.232882,72.467728 
	C17.724424,72.512329 18.394844,72.811630 18.678068,72.595016 
	C23.627642,68.809464 26.232061,71.155617 27.211267,76.442375 
	C28.191242,75.907463 28.615982,75.824753 28.719048,75.596672 
	C29.977488,72.811760 28.843325,68.795860 34.369240,68.561829 
	C37.769600,68.417816 41.086575,67.012154 44.259602,69.079514 
	C48.619644,71.920273 52.229126,69.658264 55.440048,67.116730 
	C57.986160,69.356857 54.344574,74.358513 59.810249,74.445671 
	C55.222664,77.716347 51.387386,75.799278 47.255272,73.081932 
	C45.211956,71.738213 42.028305,71.052261 39.669231,71.545326 
	C36.901161,72.123871 34.468502,74.307213 31.890371,75.794518 
	C31.944317,76.194748 31.998262,76.594978 32.052208,76.995209 
	C34.949074,76.995209 37.865009,76.796501 40.735439,77.071960 
	C42.378975,77.229683 44.258259,77.790604 45.482338,78.821777 
	C47.572166,80.582268 49.230099,82.855461 51.069447,84.913292 
z"/>
<path fill="#EBF9FE" opacity="1.000000" stroke="none" 
	d="
M140.636963,39.714939 
	C143.088379,41.502888 145.209244,43.242588 147.330124,44.982285 
	C147.046005,45.394012 146.761902,45.805744 146.477798,46.217472 
	C141.949615,44.130219 137.322449,42.229523 132.924835,39.896187 
	C129.459641,38.057587 126.759193,37.936474 123.645012,40.812229 
	C120.381287,43.826069 116.524124,48.195080 112.883385,48.236938 
	C109.293831,48.278206 105.443481,43.882576 102.091530,40.988808 
	C99.006996,38.325901 95.983513,37.353043 92.110306,38.812702 
	C90.600937,39.381523 88.838539,39.798756 87.283546,39.591999 
	C85.437439,39.346527 84.215973,38.244762 86.845840,36.427078 
	C87.045105,36.157158 87.086815,36.121391 87.382118,36.109070 
	C88.196121,35.782036 88.714821,35.467319 89.233521,35.152607 
	C96.874054,30.286148 103.874298,31.177629 110.569092,37.181095 
	C111.449600,37.970680 113.565910,37.705544 115.018112,37.435501 
	C116.259087,37.204739 117.369576,36.267750 118.535561,35.639015 
	C129.157562,29.911316 129.528976,29.972603 138.623627,38.654613 
	C139.085602,39.095631 139.741043,39.333977 140.636963,39.714939 
z"/>
<path fill="#026EFE" opacity="1.000000" stroke="none" 
	d="
M88.930115,35.185387 
	C88.714821,35.467319 88.196121,35.782036 87.359192,36.097122 
	C87.569542,35.804386 88.098122,35.511276 88.930115,35.185387 
z"/>
<path fill="#E3F7FE" opacity="1.000000" stroke="none" 
	d="
M51.390541,84.950409 
	C49.230099,82.855461 47.572166,80.582268 45.482338,78.821777 
	C44.258259,77.790604 42.378975,77.229683 40.735439,77.071960 
	C37.865009,76.796501 34.949074,76.995209 32.052208,76.995209 
	C31.998262,76.594978 31.944317,76.194748 31.890371,75.794518 
	C34.468502,74.307213 36.901161,72.123871 39.669231,71.545326 
	C42.028305,71.052261 45.211956,71.738213 47.255272,73.081932 
	C51.387386,75.799278 55.222664,77.716347 60.206154,74.502556 
	C60.484245,74.261131 60.804905,74.280273 61.283043,74.147392 
	C64.141563,74.009613 66.521942,74.004715 68.902328,73.999817 
	C68.902328,73.999817 68.903137,74.103958 68.955200,74.113647 
	C71.062477,76.509598 73.117706,78.895866 75.172928,81.282127 
	C66.943558,77.072128 60.314610,81.216904 53.293098,85.007866 
	C52.561340,85.132828 52.136486,85.060181 51.390541,84.950409 
z"/>
<path fill="#0373FC" opacity="1.000000" stroke="none" 
	d="
M68.993935,73.654114 
	C66.521942,74.004715 64.141563,74.009613 61.377945,74.017815 
	C62.423508,71.902847 61.323677,67.474411 66.247726,68.549278 
	C69.100632,69.172028 70.353249,70.398201 68.993935,73.654114 
z"/>
<path fill="#0166FE" opacity="1.000000" stroke="none" 
	d="
M66.999321,46.298016 
	C66.138069,46.188053 65.464867,45.889927 64.791656,45.591805 
	C64.997673,45.211315 65.203690,44.830826 65.409698,44.450340 
	C66.002251,45.003510 66.594803,45.556679 66.999321,46.298016 
z"/>
<path fill="#CEF4FF" opacity="1.000000" stroke="none" 
	d="
M147.171600,93.742584 
	C146.335114,93.227890 145.512650,92.729401 143.753860,91.663422 
	C147.466553,91.254944 149.605820,91.019577 151.955353,90.516724 
	C152.165604,90.249237 152.139053,90.140472 152.407806,90.136978 
	C153.197571,89.786491 153.718613,89.439507 154.239655,89.092529 
	C154.554962,89.200691 154.870255,89.308861 155.536652,89.722099 
	C154.930191,91.328979 153.972641,92.630783 153.015091,93.932594 
	C153.015091,93.932594 152.940292,93.927414 152.679230,94.021423 
	C152.235504,94.397598 152.052856,94.679756 151.870209,94.961914 
	C151.870209,94.961914 151.947647,94.921547 151.682709,94.929550 
	C151.417755,94.937546 151.049179,95.268661 151.049179,95.268661 
	C150.859894,95.273376 150.670593,95.278091 149.934204,95.152512 
	C148.651428,94.615021 147.915756,94.207825 147.180069,93.800621 
	C147.180069,93.800621 147.185623,93.758797 147.171600,93.742584 
z"/>
<path fill="#0373FC" opacity="1.000000" stroke="none" 
	d="
M153.390198,93.942520 
	C153.972641,92.630783 154.930191,91.328979 155.786285,89.698288 
	C159.367157,87.668091 160.086288,90.007851 160.793381,93.116135 
	C158.244156,93.419487 156.004730,93.685966 153.390198,93.942520 
z"/>
<path fill="#0373FC" opacity="1.000000" stroke="none" 
	d="
M147.217957,94.086983 
	C147.915756,94.207825 148.651428,94.615021 149.653824,95.197960 
	C149.032303,95.040245 148.144058,94.706795 147.217957,94.086983 
z"/>
<path fill="#0373FC" opacity="1.000000" stroke="none" 
	d="
M153.930328,89.146332 
	C153.718613,89.439507 153.197571,89.786491 152.352875,90.147812 
	C152.559799,89.841469 153.090408,89.520805 153.930328,89.146332 
z"/>
<path fill="#0373FC" opacity="1.000000" stroke="none" 
	d="
M152.066254,94.823051 
	C152.052856,94.679756 152.235504,94.397598 152.675415,94.058723 
	C152.740921,94.260551 152.517456,94.487946 152.066254,94.823051 
z"/>
<path fill="#0373FC" opacity="1.000000" stroke="none" 
	d="
M151.181335,95.296768 
	C151.049179,95.268661 151.417755,94.937546 151.661697,94.891266 
	C151.798340,95.127335 151.600952,95.287300 151.181335,95.296768 
z"/>
<path fill="#0178FE" opacity="1.000000" stroke="none" 
	d="
M65.318413,86.130295 
	C64.800522,85.111244 64.539734,84.192276 64.278938,83.273315 
	C64.877922,83.231972 65.476913,83.190628 66.075905,83.149277 
	C65.909103,84.176315 65.742302,85.203346 65.318413,86.130295 
z"/>
<path fill="#026EFE" opacity="1.000000" stroke="none" 
	d="
M77.996750,75.647186 
	C78.472099,75.658295 78.811066,75.814697 79.150024,75.971092 
	C78.976524,76.169197 78.803024,76.367294 78.629524,76.565392 
	C78.373138,76.307755 78.116753,76.050117 77.996750,75.647186 
z"/>
</svg>